# xmcd
#
# Track frame offsets: 
#        150
#        12700
#        24035
#        38632
#        54534
#        65734
#        83144
#        96549
#        108627
#        123179
#        134109
#        151271
#        162741
#        176213
#        189235
#        200795
#        212513
#        224950
#        237432
#        251489
#
# Disc length: 3534 seconds
#
# Revision: 0
# Processed by: cddbd v1.5.1PL0 Copyright (c) Steve Scherf et al.
# Submitted via: ExactAudioCopy v0.95a1
#
DISCID=330dcc14
DTITLE=Uncle Cuckleburr's Champion Possum Carvers - The Ozark Sheiks
DYEAR=2004
DGENRE=Country
TTITLE0=Run Mollie Run
TTITLE1=All Night Long Blues
TTITLE2=No Low Down Hanging Around - Bay Rum Blues
TTITLE3=Bow-Legged Rooster
TTITLE4=Possum Carvers' Boll Weevil Blues
TTITLE5=Ozark Sheiks
TTITLE6=Gonna Keep My Skillet Greasy
TTITLE7=Old Mollie Hare
TTITLE8=That Lonesome Train Took My Baby Away
TTITLE9=Over the Road I'm Bound To Go
TTITLE10=White Oak Tree
TTITLE11=Water and Seed
TTITLE12=Sycamore Tree
TTITLE13=Fallin' Down Blues
TTITLE14=What's That That Tastes Like Gravy
TTITLE15=On The Road Again
TTITLE16=Shake It and Break It
TTITLE17=Don't Get Trouble In Your Mind
TTITLE18=Skinner
TTITLE19=Carve That Possum
EXTD=
EXTT0=
EXTT1=
EXTT2=
EXTT3=
EXTT4=
EXTT5=
EXTT6=
EXTT7=
EXTT8=
EXTT9=
EXTT10=
EXTT11=
EXTT12=
EXTT13=
EXTT14=
EXTT15=
EXTT16=
EXTT17=
EXTT18=
EXTT19=
PLAYORDER=
